<svg width="29" height="28" viewBox="0 0 29 28" fill="none" xmlns="http://www.w3.org/2000/svg">
<g id="icone">
<circle id="Ellipse 3" cx="14.5" cy="14" r="14" fill="#1E1F28"/>
<path id="Vector" d="M13.4055 9.77211L19.311 13.2717C19.4461 13.3515 19.5568 13.4598 19.6333 13.5869C19.7099 13.7139 19.75 13.8558 19.75 14C19.75 14.1442 19.7099 14.2861 19.6333 14.4131C19.5568 14.5402 19.4461 14.6485 19.311 14.7283L13.4055 18.2279C13.2573 18.3158 13.0849 18.3663 12.9069 18.374C12.7289 18.3816 12.5518 18.3462 12.3947 18.2714C12.2376 18.1966 12.1062 18.0853 12.0147 17.9494C11.9232 17.8135 11.8749 17.658 11.875 17.4995V10.5005C11.8749 10.342 11.9232 10.1865 12.0147 10.0506C12.1062 9.91466 12.2376 9.80336 12.3947 9.72858C12.5518 9.6538 12.7289 9.61836 12.9069 9.62603C13.0849 9.63369 13.2573 9.68418 13.4055 9.77211Z" fill="url(#paint0_linear_615_645)"/>
</g>
<defs>
<linearGradient id="paint0_linear_615_645" x1="11.875" y1="14.0847" x2="19.9925" y2="14.2299" gradientUnits="userSpaceOnUse">
<stop stop-color="#9F55FF"/>
<stop offset="1" stop-color="#FF46B9"/>
</linearGradient>
</defs>
</svg>
